<?xml version="1.0" encoding="UTF-8"?>
<!DOCTYPE svg PUBLIC "-//W3C//DTD SVG 1.1//EN" "http://www.w3.org/Graphics/SVG/1.1/DTD/svg11.dtd">
<!-- Creator: CorelDRAW 2018 (64 Bit) -->
<svg xmlns="http://www.w3.org/2000/svg" xml:space="preserve" width="306.781mm" height="366.041mm" version="1.1" style="shape-rendering:geometricPrecision; text-rendering:geometricPrecision; image-rendering:optimizeQuality; fill-rule:evenodd; clip-rule:evenodd"
viewBox="0 0 17124.1 20431.91"
 xmlns:xlink="http://www.w3.org/1999/xlink">
 <defs>
  <style type="text/css">
   <![CDATA[
    .fil6 {fill:#010101;fill-rule:nonzero}
    .fil5 {fill:#2D343F;fill-rule:nonzero}
    .fil1 {fill:#33C600;fill-rule:nonzero}
    .fil9 {fill:#A31126;fill-rule:nonzero}
    .fil8 {fill:#C81631;fill-rule:nonzero}
    .fil7 {fill:#D8BD6B;fill-rule:nonzero}
    .fil2 {fill:white;fill-rule:nonzero}
    .fil0 {fill:url(#id0)}
    .fil3 {fill:url(#id1)}
    .fil4 {fill:url(#id2)}
   ]]>
  </style>
  <linearGradient id="id0" gradientUnits="userSpaceOnUse" x1="2885.36" y1="11643.98" x2="16139.19" y2="11643.98">
   <stop offset="0" style="stop-opacity:1; stop-color:#33C600"/>
   <stop offset="1" style="stop-opacity:1; stop-color:#00AA66"/>
  </linearGradient>
  <linearGradient id="id1" gradientUnits="userSpaceOnUse" xlink:href="#id0" x1="14022.61" y1="4767.81" x2="10258.58" y2="17118.58">
  </linearGradient>
  <linearGradient id="id2" gradientUnits="userSpaceOnUse" xlink:href="#id0" x1="13988.14" y1="4957.24" x2="10342.83" y2="16917.83">
  </linearGradient>
 </defs>
 <g id="Camada_x0020_1">
  <metadata id="CorelCorpID_0Corel-Layer"/>
  <path class="fil0" d="M16139.25 13123.9c0,2000.56 -1080.49,4085.08 -2659.11,5512.89 -1201.62,1087.96 -2692.47,1795.12 -4215.36,1795.12 -1356.54,0 -2613.96,-423.18 -3647.39,-1144.94 -671.38,-467.85 -1248.03,-1062.17 -1696,-1748.35 -655.1,-1001.9 -1035.98,-2199.04 -1035.98,-3485.43 0,-2004.89 574.75,-9809.35 8750.63,-11196.83 2.5,2.72 4.33,5.35 6.89,8.58 1193.41,1545.62 4496.33,8257.79 4496.33,10258.94z"/>
  <path class="fil1" d="M8379.38 11820.8c145.02,2311.44 -1611.4,4302.85 -3922.99,4448.08 -2311.57,144.67 -4303.06,-1611.75 -4448,-3923.2 -145.02,-2311.44 1611.4,-4302.83 3922.97,-4448.08 2311.59,-144.65 4303,1611.77 4448.02,3923.2z"/>
  <path class="fil2" d="M7395.52 11882.68c112.54,1794.62 -1251.27,3340.76 -3046.09,3453.68 -1794.91,112.4 -3341.2,-1251.48 -3453.81,-3046.1 -112.55,-1795.12 1251.17,-3341.26 3046.08,-3453.66 1794.91,-112.92 3341.2,1250.96 3453.82,3046.08z"/>
  <path class="fil1" d="M5845.49 12470.48c33.65,535.08 -373.2,996.54 -908.65,1030.41 -535.45,33.3 -996.75,-373.26 -1030.34,-908.86 -33.58,-535.66 373.26,-996.54 908.71,-1030.41 535.45,-33.36 996.77,373.2 1030.28,908.86z"/>
  <path class="fil3" d="M16197.91 13123.9c0,2010.24 -1091.64,4106.56 -2683.02,5535.47 -3171.31,-2018.82 -5275.04,-5565.09 -5275.04,-9602.82 0,-2084.43 560.6,-4037.71 1539.76,-5717.23 586.99,-202.21 1223.91,-365.19 1915.01,-482.94 1187.98,1529.49 4503.3,8263.14 4503.3,10267.52z"/>
  <path class="fil4" d="M17115.72 10500.56c145.02,2311.44 -1611.4,4302.85 -3922.91,4447.51 -2311.67,145.17 -4303.06,-1611.19 -4448.08,-3922.62 -144.96,-2311.44 1611.38,-4302.91 3922.97,-4448.08 2311.59,-145.25 4303.07,1611.24 4448.02,3923.2z"/>
  <path class="fil2" d="M16131.92 10561.86c112.55,1795.12 -1251.24,3341.26 -3046.08,3453.66 -1794.91,112.92 -3341.28,-1250.88 -3453.81,-3046.01 -112.63,-1794.62 1251.17,-3340.76 3046.08,-3453.74 1794.91,-112.4 3341.28,1251.47 3453.81,3046.09z"/>
  <path class="fil1" d="M12926.23 11518.08c33.65,535.06 -373.2,996.46 -908.72,1030.34 -535.37,33.35 -996.62,-373.78 -1030.26,-908.86 -33.59,-535.67 373.26,-997.06 908.7,-1030.41 535.45,-33.88 996.78,373.26 1030.28,908.94z"/>
  <path class="fil2" d="M13128.14 16038.74c-401.57,522.69 -838.32,954.53 -1295.68,1313.79 -2108.35,1655.82 -4657.71,1758.04 -6215.07,1934.44 -671.38,-467.85 -1248.03,-1062.17 -1696,-1748.35 1650.85,283.96 3880.17,649.67 7395.85,-701.29 568.52,-218.87 1171.49,-482.37 1810.9,-798.6z"/>
  <g id="_1818994301696">
   <path class="fil5" d="M11525.34 2480.76c166.06,26.25 328.51,64.42 482.39,113.51 24.01,4.46 46.34,15.68 59.87,29.84 17.3,15.02 30,34.68 36.13,55.46 246.11,391.08 461.26,816.09 657.61,1299.21 165.49,406.95 320.31,862.19 487.26,1432.93 8.07,26.85 -4.44,61.74 -19.46,82.91 0.95,26.55 -7.76,52.53 -24.52,71.94 -399.49,478.42 -901.32,896.09 -1491.31,1241.89 -578.58,337.85 -1211.04,591.24 -1879.96,753.02 -882.64,214.32 -1785.68,258.61 -2611.55,128.06 -470.8,-74.27 -919.51,-205.25 -1333.44,-389.01 -289.38,-128.34 -568.17,-289.58 -828.9,-478.99 -20.29,-14.5 -33.81,-35.8 -39.61,-62.11 -15.12,-16.58 -23,-36.4 -29.92,-60.83 -245.66,-837.95 -112.2,-1713.31 16.79,-2559.76l3.32 -20.9c10.06,-64 63.72,-107.68 124.99,-101.4 23.38,3.78 40.61,11.17 55.86,22.68 386.39,-156.63 826.17,-333.81 1258.02,-491.32 162.34,-58.97 326.08,-114.73 489.88,-170.32l116.82 -39.78 175.67 -60.49 351.84 -120.67c696.29,-237.5 1508.56,-502.22 2336.14,-637.26 612.31,-99.9 1137.65,-112.55 1606.11,-38.63z"/>
   <path class="fil6" d="M5135.85 4013.41c22.01,3.43 39.67,11 56.64,23.76 374.71,-154 818.14,-331.75 1255.39,-491.84 162.49,-58.91 326.43,-114.72 490.29,-170.42l116.9 -39.56 175.3 -60.51 352.23 -120.7c696.93,-237.82 1509.2,-502.54 2335.82,-637.07 612.52,-100.93 1138.29,-113.71 1607.64,-39.5 164.6,25.99 326.66,64.64 482.84,113.52 24.06,4.35 47.07,16.27 61.31,31 17.11,15.04 29.91,35.43 36.06,56.59 172.25,272.79 329.03,562.6 475.02,878.07 -513.43,259.69 -1027.47,517.7 -1549.2,759.01 -635.11,293.25 -1281.31,562.23 -1945.91,780.86 -137.43,45.2 -274.32,87.49 -411.33,127.51 -140.89,40.87 -282.77,80.71 -424.95,114.99 -144.64,35.17 -289.89,67.35 -436.87,91.46 -145.12,23.11 -289.88,40.47 -436.17,48.79 0.6,-0.53 1.86,-0.36 3.03,-0.6 -110.27,5.04 -221.66,5.77 -331.69,-1.54 -108.23,-7.65 -214.75,-21.49 -320.68,-42.42 -0.54,-0.04 -1.05,-0.12 -1.67,-0.2 -1.73,-0.92 -4.07,-1.27 -5.59,-1.6 0.57,0.16 1.52,0.32 2.12,0.44 -69.71,-15.27 -138.66,-32.65 -206.65,-55.11 -69.78,-23.55 -138.38,-49.22 -206.77,-77.11 -128.49,-51.65 -256.18,-105.63 -388.89,-145.42 -1.07,-0.31 -1.97,0.41 -3.01,0.15 -17.83,89.37 -35.71,178.76 -54.55,267.89 -4.42,42.52 -10.63,84.59 -14.24,127.27 -5.16,68.07 -5.62,136.02 -8.25,204.02 1.31,136.44 10.1,272.74 32.29,407.47 23.92,144.5 57.45,287.8 107.33,425.28 48.16,133.07 108.29,262.06 182.88,382.13 73.56,118.8 159.59,229.96 258.01,329.06 100.78,100.47 212.62,190.35 333.95,265.09 33.73,20.73 67.88,40.35 102.63,58.89 -338.32,-76.67 -663.61,-183.84 -970.31,-320.12 -288.25,-127.32 -566.9,-288.44 -828.58,-478.99 -20.82,-14.45 -35.04,-36.28 -40.74,-63.79 -13.32,-13.88 -22.27,-31.94 -30.23,-60.97 -246.04,-839.12 -112.65,-1713.35 16.24,-2559.34l3.53 -22.47c10.3,-65.42 65.35,-109.88 128.85,-103.95z"/>
   <path class="fil6" d="M10237.38 85.8c204.94,54.89 395.08,112.7 582.11,177.29 342.51,120.41 674.1,262.13 983.82,421.64 308.68,158.29 614.33,340.32 907.62,540.55 285.37,194.7 563.55,410.81 828.25,642.66 51.45,44.93 105,92.41 159.7,142.36 0.74,3.77 1.74,8.03 2.31,11.68 3.23,17.1 5.48,33.46 6.83,50.21 2.04,25.07 2.92,49.52 0.56,74.66 -1.81,23.39 -4.14,46.19 -7.74,68.59 -6.31,32.67 -14.3,64.63 -25.22,96.13 -11.36,30.67 -23.86,60.66 -37.49,90.49 -7.64,15.23 -15.4,30.1 -23.46,44.14 -548.96,354.25 -1152.58,676.63 -1834.04,981.59 -744.38,332.74 -1553.72,627.39 -2405.89,875.06 -814.13,237.05 -1653.36,425.96 -2496.07,560.18 -332.1,-78.49 -683.86,-181.31 -1045.3,-305.36 -401.2,-139.7 -779.69,-294.71 -1126.32,-460.21 -396.46,-188.07 -741.25,-383.87 -1055.53,-598.16 -293.94,-201.2 -540.12,-407.14 -747.9,-625.73 -3.18,-12.33 -5.91,-24.55 -8.32,-36.97 -5.79,-34.14 -10.22,-67.89 -14.08,-102.68 -0.04,-0.33 0.07,-0.8 -0.07,-1.23 0.11,-0.79 0.01,-1.65 0.13,-2.48l-0.12 -0.7c-0.02,-0.38 -0.15,-0.75 -0.25,-1.16 0.12,-0.6 0.07,-1.13 -0.12,-1.76 -2.94,-58.47 -2.52,-116.39 2,-174.31 2.24,-24.54 4.92,-49 7.84,-73.29 216.2,-188.1 446.13,-364.95 687.66,-527.55 297.22,-199.18 618.53,-386.39 955.24,-554.55 634.56,-319.9 1335.4,-589.63 2143.03,-824.83 1050.82,-306.26 2127.47,-498.47 3200.24,-571.02 -0.05,-0.53 0.7,-0.99 1.23,-1.04 120.13,26.14 239.99,54 359.33,85.8z"/>
   <path class="fil6" d="M2880.85 2726.61c0.03,0.57 0.03,1.22 0.08,1.75 -0.15,-1.27 -0.41,-2.39 -0.59,-3.71 0.12,0.79 0.45,1.44 0.5,1.96z"/>
   <path class="fil6" d="M2881.21 2729.44c0,0 -0.11,0.14 0.05,0.21 -0.05,-0.21 -0.05,-0.21 -0.16,-0.39 -0.05,0.12 0.11,0.18 0.11,0.18z"/>
   <path class="fil6" d="M2881.24 2730.24c-0.07,0.48 -0.07,1.12 -0.23,1.74 0.1,-0.79 0.18,-1.62 0.18,-2.27 -0.05,0.12 0,0.32 0.05,0.53z"/>
   <path class="fil6" d="M2881.18 2732.66c-0.04,0.31 0.05,0.53 0.03,0.89l-0.17 -1.65c-0.02,0.36 0.05,0.53 0.14,0.75z"/>
   <path class="fil6" d="M2881.16 2733.89c0.15,0.43 -0.06,0.8 -0.01,1.01 0.11,-0.46 0.01,-1.01 0.01,-1.33 0,0 0.09,0.22 0,0.32z"/>
   <path class="fil5" d="M13701.12 2022.7c3.24,16.41 5.33,33.39 6.79,50.2 2.03,24.56 2.76,49.58 0.72,74.72 -1.91,22.66 -4.23,45.41 -7.89,68.52 -6.36,32.15 -14.42,64.59 -25.33,96.04 -11.2,30.09 -23.12,60.88 -37.18,89.98 -7.75,15.37 -16.05,30.65 -24.31,45.39 -544.07,353.61 -1146.76,676.17 -1832.44,982.73 -748.35,334.6 -1557.56,628.61 -2406.23,875.1 -812.73,237.97 -1652.6,426.01 -2496.49,560.28 -328.58,-76.81 -680.61,-179.74 -1046.51,-305 -398.19,-139.29 -777.43,-293.84 -1126.92,-460.33 -394.71,-187.83 -739.56,-383.15 -1055.16,-598.79 -291.46,-198.58 -536.07,-402.7 -744.91,-621.83 -3.87,-14.19 -7.14,-28.58 -10.09,-42.99 -5.59,-34.7 -10.39,-69.11 -13.58,-104.59 -0.29,1.22 -0.24,1.74 -0.52,2.96 0.3,-1.58 0.04,-2.7 0.06,-4.03 0,0.32 0.15,0.75 0.47,1.07 -0.52,-1.28 -0.3,-2.34 -0.64,-4.24 -0.12,1.14 0.35,1.9 0.3,2.34 -0.47,-1.72 -0.55,-3.47 -0.9,-5.36 0.36,0.89 0.55,1.85 0.6,2.38 0,0.32 -0.11,0.46 0,0.65 0.05,-0.12 0,-0.32 0,-0.65 -3.08,-58.25 -2.66,-116.49 1.76,-174.82 1.64,-17.38 3.47,-34.67 5.41,-51.88 530.58,416.32 1085.89,801.9 1675.51,1128.78 362.5,200.99 736.94,382.08 1122.29,535.27 375.33,148.78 759.84,273.98 1151.14,374.24 6.21,4.58 14.86,7.11 22.1,5.82 1.68,0.39 3.32,1.09 5.01,1.44 11.47,2.95 22.7,-1.12 30.78,-8.18 701.95,-133.46 1396.15,-302.64 2079.49,-507.7 842.34,-252.83 1669.63,-555.83 2476.53,-905.46 767.32,-332.05 1517.19,-703.67 2249.03,-1109.9 0.23,2.5 0.94,5.38 1.13,7.86z"/>
   <path class="fil7" d="M8449.6 1677.83c16.28,58.21 -19.42,122.44 -78.48,137.45 -253.02,65.21 -506.39,128.89 -757.75,200.38 -195.41,56.19 -390.57,111.69 -586.65,165.34 -399.85,110.09 -799.56,223.74 -1182.69,382.78 -257.13,109.19 -504.55,239.5 -727.78,408.19 -134.15,105.38 -255.13,224.31 -360.47,358.79 -134.46,181.1 -237.98,380.82 -323.72,589.13 1.69,-4.18 3.32,-8.23 5.07,-12.23 -198.61,496.54 -296.87,1024.94 -468.6,1530.34 -9.92,29.9 -24.98,53.45 -53,69.87 -25.34,14.24 -55.54,18.35 -83.48,11.65 -55.62,-14.79 -101.14,-78.73 -81.46,-136.64 126.09,-370.66 211.97,-753.66 327.28,-1127.07 115.73,-377.1 264.76,-750.63 505.73,-1066.49 222.45,-290.88 522.44,-508.58 844.55,-677.97 332.89,-174.03 690.95,-297.92 1048.95,-407.07 271.15,-82.11 545.18,-153.68 817.56,-230.05 151.83,-43.08 302.71,-87.8 455.43,-129.39 186.56,-50.37 374.1,-97.69 561.61,-146.26 15.52,-3.86 31.2,-4.42 46.16,-1.96 42.58,6.75 79.92,37 91.74,81.22zm-2587.63 878.47l0 0c-3.15,1.24 -6.07,2.57 -9.1,3.82 3.03,-1.25 5.94,-2.58 9.1,-3.82z"/>
   <path class="fil7" d="M7930.49 1826.94c-44.82,-147.18 139.02,-333.48 410.14,-415.88 270.82,-82.43 527.31,-29.92 572.14,117.26 44.55,147.07 -138.93,333.38 -410.06,415.77 -271.12,82.39 -527.51,29.98 -572.23,-117.15z"/>
   <path class="fil8" d="M3712.12 5721.69c6.27,16.46 8.77,33.85 7.02,52.69 34.08,17.19 56.01,50.14 57.15,84.7 4.09,145.6 11.43,290.51 19.82,436.32 5.41,108.63 11.21,217.75 15.87,326.84 14.8,366.27 12.74,668.32 -5.76,950.08 -24.14,354.85 -77.69,637.5 -168.89,890.1 -70.19,192.48 -205.52,453.89 -455.56,608.53 -101.44,62.7 -219.34,103.81 -355.52,122.48 0.12,-29.82 0.21,-59.71 0.76,-89.68 0.43,0.74 0.36,1.22 0.26,1.68 0.11,-0.46 0.17,-0.94 -0.26,-1.68 0.05,-0.12 0.07,-0.47 0,-0.64l-0.15 0.57c0.5,-2.92 0.31,-5.4 0.73,-8.22 5.86,-167.77 21.6,-335.04 47.79,-500.75 26.6,-168.08 61.62,-334.18 103.04,-499.16 4.33,-16 -6.96,-33.77 -21.51,-40.2 -2.58,-1.52 -6.07,-1.99 -8.93,-2.65 -12.68,-1.94 -28.17,2.15 -35.27,13.42 -145.39,219.64 -276.29,449.42 -386.94,688.8 -64.81,139.35 -122.7,282.39 -172.53,428.39 -2.18,-0.42 -5.15,-0.81 -7.47,-1.2 -110.33,-17.44 -229.53,-46.97 -362.82,-89.5 6.12,-48.48 13.89,-96.81 24.02,-144.5 13.84,-64.74 29.73,-128.57 47.95,-191.35 -0.99,2.86 -2.05,6.23 -3.35,9.6 27.31,-89.76 57.79,-177.88 93.76,-263.95 35.37,-84.85 74.47,-168.11 115.9,-249.77 7.75,-14.73 2.57,-34.5 -10.09,-44.83 -5.31,-3.78 -11.94,-6.61 -18.19,-7.52 -9.95,-1.66 -20.3,0.35 -27.77,6.2 -161.57,134.79 -299.42,295.91 -414.16,471.94 -57.17,87.45 -110.24,176.75 -159.13,268.34l-0.61 1.22c-27.45,-13.72 -54.83,-28.24 -82.11,-43.19 -135.29,-75.85 -253.43,-160.24 -350.84,-250.66 -100.42,-91.7 -181.02,-196.12 -239.79,-310.23 -26.27,-51.44 -42.55,-105.45 -59.31,-171.52 -20.52,-80.72 -32.44,-155.37 -36.37,-227.09 -8.44,-137.35 9.2,-278.99 53.37,-419.9 69.97,-225.73 212.83,-448.2 423.56,-662.32 190.27,-193.05 425.59,-371.81 719.57,-546.83 241.87,-144.56 503.42,-275.39 799.53,-400.31 228.79,-96.97 466.93,-184.2 706.6,-258.79 20.41,-5.69 40.76,-7.16 60.33,-4.18 40.57,6.4 72.13,31.56 86.28,68.71z"/>
   <path class="fil8" d="M2826.96 9103.78c0,0 0,0 -0.15,-0.07 0.15,0.07 0.15,0.07 0.15,0.07z"/>
   <path class="fil9" d="M3804.1 5476.99c26.41,8.9 48.21,27.64 60.85,52.85 24.83,49.31 5.53,118.64 -47.19,141.51 -44.48,19.78 -87.46,43.71 -131.22,65.69 -44.97,22.57 -89.96,45.59 -134.55,69.39 -99.26,52.37 -198.78,104.59 -296.77,159.03 -199.66,111.41 -394.28,231.56 -584.28,358.38 0.8,-0.58 1.55,-1.04 2.46,-1.76 -2.73,1.97 -5.51,3.73 -8.02,5.62 -0.94,0.47 -1.76,1.09 -2.6,1.66 0.31,-0.19 0.57,-0.36 0.75,-0.46l-3.1 2.09c-0.75,0.46 -1.35,0.99 -2.1,1.46 -2.78,1.77 -5.29,3.65 -8.07,5.42l-0.09 0.1 0.09 -0.1c-221.73,151.53 -435.89,314.16 -641.26,488.34 -207.42,176.81 -406.48,364.41 -586.92,568.39l0.1 -0.14c-10.96,12.53 -22.38,24.95 -32.37,36.93 3.44,-4.3 7.2,-8.88 10.9,-13.02 -96.24,110.74 -188.25,224.67 -272.99,345.02 -79.93,112.84 -150.77,231.83 -212.3,355.38 0.88,-1.75 1.12,-3.49 1.98,-5.06 -7.49,16.18 -15.1,32.3 -22.6,48.28 -3.33,-23.68 -6.77,-47.42 -10.45,-71.35 -2.13,-9.71 -3.48,-19.42 -5.45,-29.2 -0.73,-6.63 -1.85,-13.84 -2.6,-21.17 -0.69,-5.41 -1.47,-11.05 -2.15,-16.49 113.41,-231.8 248.44,-453.32 403.17,-659.81 103.62,-139.32 218.46,-270.36 333.61,-400.07 59.64,-66.4 123.38,-129.66 187.3,-192.25 63.65,-63.49 129.16,-125.26 196.65,-184.99 266.38,-239.66 554.21,-455.11 854.89,-650.28 142.42,-92.41 289.76,-177.88 439.49,-257.9 71.86,-38.36 144.74,-72.97 218.68,-106.35 32.6,-14.84 64.98,-29.26 97.95,-43.11 38.6,-16.25 79.13,-29.46 117.42,-46.39 20.93,-8.65 42.28,-12.98 64.24,-9.43 5.81,0.87 10.78,2.29 16.58,3.83zm-1143.66 853.99l0 0c-0.75,0.46 -1.35,0.99 -2.1,1.46 0.75,-0.46 1.35,-0.99 2.1,-1.46z"/>
   <path class="fil9" d="M2663.5 6328.87c0.57,-0.36 1.11,-0.77 1.85,-1.19 1.83,-1.26 3.64,-2.51 5.56,-3.86 -2.3,1.83 -4.66,3.46 -7.41,5.05z"/>
   <polygon class="fil9" points="912.81,8123.57 915.4,8118.68 "/>
   <path class="fil9" d="M3677.75 5515.34c19.04,3.04 36.53,12.2 49.03,26.7 30.13,33.72 26.65,86.46 -7.18,116.54 -69.49,61.92 -141.65,120.91 -212.66,180.66 -77.32,65.92 -155.06,131.74 -231.93,197.77 -146.71,127.7 -291.49,257.6 -433.8,390.12 -141.57,132.1 -280.65,267.52 -415.73,407.23 -138.7,143.74 -277.32,287.01 -409.56,437.65 -180.16,207.65 -346.69,427 -504.75,651.16 -145.81,206.56 -278.94,422.53 -399.87,644.48 -5.58,-6.8 -11.34,-13.54 -17.09,-20.28 -11.78,-13.59 -23.73,-26.98 -35.9,-40.42 139.28,-262.23 290.79,-517.99 455.9,-764.32 94.34,-139.64 192.41,-276.75 294.73,-411 101.63,-133.57 204.26,-267.14 311.69,-396.35 214.24,-259.06 448.01,-501.96 691.73,-732.93 123,-116.63 249.15,-229.3 378.21,-338.51 64.27,-54.88 130.34,-108.44 196.54,-161.24 72.4,-57.82 146.61,-115.24 223.11,-168.42 18.52,-12.4 35.52,-21.57 58.77,-20.2 2.96,0.52 5.81,0.86 8.73,1.37z"/>
   <path class="fil9" d="M3724.92 5562.63c20.9,14.03 35.65,36.45 41.2,60.99 5.19,23.33 1.35,55.81 -14.75,74.55 -98.02,118.29 -200.65,232.9 -301.08,348.4 -108.56,124.86 -217.26,250.35 -324.64,376.54 -211.59,248.29 -418.85,500.18 -617.13,759.54 -392.73,514.4 -749.09,1058.82 -1036.22,1640.07 0.1,-0.23 0.05,-0.44 0.16,-0.58 -0.43,0.79 -0.7,1.64 -1.14,2.46l-0.7 1.32c0.16,0.07 0.21,-0.05 0.27,-0.21l-0.49 0.94c-1.11,3.13 -2.67,6.7 -4.34,9.86l0.16 -0.58c-0.16,0.26 -0.21,0.37 -0.48,0.58 0.09,-0.1 0.21,-0.05 0.32,0 -2.01,3.85 -3.81,7.64 -5.77,11.7 -4.52,-2.71 -9.15,-5.47 -13.77,-8.27 -28.75,-21.14 -57.02,-42.68 -86.46,-63.2 126.07,-266.28 264.6,-525.32 415.2,-778.53 175.77,-295.28 366.55,-581.21 565.19,-861.12 194.12,-272.98 396.7,-539.86 607.06,-800.62 103.31,-128.66 209.15,-255.79 316.43,-381.52 111.92,-130.25 223.6,-260.47 341.35,-384.6 20.47,-21.02 51.22,-28.02 80.05,-23.39 14.33,2.28 28.42,7.96 39.58,15.66zm-2254.52 3264.02l0 0c-1.47,3.11 -2.93,6.22 -4.19,9.28 1.46,-3.11 3.08,-6.16 4.19,-9.28z"/>
   <path class="fil9" d="M1470.91 8825.67c0.22,-0.41 0.22,-0.74 0.42,-1.11l0.99 -1.88c-0.28,0.89 -0.92,2.05 -1.41,2.99z"/>
   <path class="fil9" d="M3771.62 5508.11c22.61,14.89 38.89,39.35 44.68,66.34 0.9,8.91 1.23,17.91 2.15,26.78 -1.31,19.96 -6.96,37.43 -17.91,54.16 -119.22,237.44 -257.42,464.02 -383.85,698.01 -63.35,117.33 -125.8,235.14 -187.72,353.22 -66.12,126.85 -133.44,252.95 -196.39,381.47 2.72,-5.53 5.38,-11.54 8.1,-17.07 -327.03,669.19 -615,1357.41 -830.33,2071.46 -0.78,2.81 -1.98,5.39 -3.37,7.7 -23.04,-5.99 -46.17,-11.88 -69.48,-17.33 -0.16,-4.5 0.21,-9.37 1.43,-13.97 90.55,-310.73 190.51,-617.37 299.43,-921.53 109.96,-305.75 228.22,-608.37 353.72,-908.05 62.73,-149.96 128.14,-298.32 193.02,-447.78 64.29,-148.42 131.45,-295.9 200.8,-442.35 32.64,-68.72 66.02,-136.9 98.74,-205.72 37.09,-76.88 72.9,-154.25 111.12,-230.32 71.2,-144.51 145.28,-287.79 228.81,-426.17 21.51,-36.21 64.69,-51.2 104.68,-44.95 15.02,2.29 29.5,7.5 42.38,16.11z"/>
   <path class="fil9" d="M3906.85 5478.02c19.07,22 34.36,56.37 29.58,85.77 -45.41,307.05 -99.06,612.77 -158.44,917.74 -30.4,154.37 -61.85,308.53 -97.26,462.11 -36.18,154.08 -68.42,309.33 -105.7,463.31 -18.01,72.37 -34.38,145.54 -51.7,217.92 -19.47,81.52 -40.55,162.73 -61.1,244.21 -38.3,152.57 -78.22,304.83 -120.04,456.79 -72.38,262.45 -151.27,522.55 -238.55,779.92 -30.61,13.19 -61.44,25.93 -92.32,38.45 85.72,-252.08 161.01,-507.3 229.51,-764.54 78.31,-297.04 142.34,-597.69 200.68,-899.79 -0.55,0.74 -0.85,1.57 -0.99,2.21 59.35,-315.96 102.01,-633.87 143.54,-952.58 41.85,-325.44 77.46,-651.8 112.29,-978.39 3.97,-32.38 15.95,-61.9 41.19,-84.03 23.42,-20.45 54.07,-30.91 85.16,-29.66 4.04,0.06 8.22,0.74 12.17,1.31 27.77,4.41 53.36,18.49 71.99,39.25z"/>
   <path class="fil9" d="M3440.51 7482.76c-0.05,-0.21 0,-0.32 0,-0.65 0.07,0.17 -0.05,0.44 0,0.65z"/>
   <path class="fil9" d="M3438.46 7494.84c0.63,-4.07 1.25,-8.14 2.11,-12.1 -0.86,3.96 -1.48,8.03 -2.11,12.1z"/>
   <path class="fil9" d="M3957.01 5289.51c62.95,32.44 123.71,75.11 168.23,129.39 49.17,59.91 65.99,144.26 32.32,215.82 -28.8,61.77 -82.69,99.41 -150.7,107 -48.18,5.52 -93.38,-8.2 -137.49,-24.59 -34.31,-12.54 -65.74,-29.9 -96.97,-49.66 -25.19,-16.08 -49.75,-32.68 -73.38,-50.81 -14.43,-7.9 -28.48,-16.61 -42.25,-26.71 -35.46,-26.17 -62.8,-58.43 -89.95,-93.42 -21.97,-29.6 -32.44,-67.91 -36.33,-103.36 -2.9,-33.15 11.36,-75.16 33.9,-98.85 25.53,-26.15 53.53,-41.88 87.9,-53.61 37.06,-13.63 82.54,-13.66 120.92,-9.26 7.71,0.84 15.5,1.71 22.99,2.97 56.65,8.91 110.16,28.67 160.82,55.09z"/>
  </g>
 </g>
</svg>
