<?xml version="1.0" encoding="UTF-8"?>
<!DOCTYPE svg PUBLIC "-//W3C//DTD SVG 1.1//EN" "http://www.w3.org/Graphics/SVG/1.1/DTD/svg11.dtd">
<!-- Creator: CorelDRAW 2018 (64 Bit) -->
<svg xmlns="http://www.w3.org/2000/svg" xml:space="preserve" width="12.448mm" height="14.1886mm" version="1.1" style="shape-rendering:geometricPrecision; text-rendering:geometricPrecision; image-rendering:optimizeQuality; fill-rule:evenodd; clip-rule:evenodd"
viewBox="0 0 956.19 1089.9"
 xmlns:xlink="http://www.w3.org/1999/xlink">
 <defs>
  <style type="text/css">
   <![CDATA[
    .fil4 {fill:white}
    .fil14 {fill:#31994B;fill-rule:nonzero}
    .fil2 {fill:url(#id0)}
    .fil3 {fill:url(#id1)}
    .fil1 {fill:url(#id2)}
    .fil5 {fill:url(#id3)}
    .fil10 {fill:url(#id4)}
    .fil12 {fill:url(#id5)}
    .fil8 {fill:url(#id6)}
    .fil7 {fill:url(#id7)}
    .fil16 {fill:url(#id8)}
    .fil11 {fill:url(#id9)}
    .fil15 {fill:url(#id10)}
    .fil6 {fill:url(#id11)}
    .fil9 {fill:url(#id12)}
    .fil13 {fill:url(#id13)}
    .fil0 {fill:url(#id14)}
   ]]>
  </style>
  <linearGradient id="id0" gradientUnits="userSpaceOnUse" x1="114.46" y1="193.03" x2="404.14" y2="193.03">
   <stop offset="0" style="stop-opacity:1; stop-color:#038D1A"/>
   <stop offset="1" style="stop-opacity:1; stop-color:#04633D"/>
  </linearGradient>
  <linearGradient id="id1" gradientUnits="userSpaceOnUse" xlink:href="#id0" x1="596.2" y1="282.99" x2="775.01" y2="282.99">
  </linearGradient>
  <linearGradient id="id2" gradientUnits="userSpaceOnUse" xlink:href="#id0" x1="-0.01" y1="278.72" x2="539.57" y2="278.72">
  </linearGradient>
  <linearGradient id="id3" gradientUnits="userSpaceOnUse" xlink:href="#id0" x1="703.62" y1="913.83" x2="877.45" y2="913.83">
  </linearGradient>
  <linearGradient id="id4" gradientUnits="userSpaceOnUse" xlink:href="#id0" x1="793.94" y1="695.91" x2="956.18" y2="695.91">
  </linearGradient>
  <linearGradient id="id5" gradientUnits="userSpaceOnUse" xlink:href="#id0" x1="763.84" y1="450.8" x2="931.81" y2="450.8">
  </linearGradient>
  <linearGradient id="id6" gradientUnits="userSpaceOnUse" xlink:href="#id0" x1="596.21" y1="282.99" x2="775.01" y2="282.99">
  </linearGradient>
  <linearGradient id="id7" gradientUnits="userSpaceOnUse" xlink:href="#id0" x1="488.83" y1="1037.15" x2="665.96" y2="1037.15">
  </linearGradient>
  <linearGradient id="id8" gradientUnits="userSpaceOnUse" xlink:href="#id0" x1="117.62" y1="636.24" x2="954.42" y2="636.24">
  </linearGradient>
  <linearGradient id="id9" gradientUnits="userSpaceOnUse" xlink:href="#id0" x1="793.93" y1="695.91" x2="956.18" y2="695.91">
  </linearGradient>
  <linearGradient id="id10" gradientUnits="userSpaceOnUse" xlink:href="#id0" x1="6.8" y1="394.27" x2="402.69" y2="394.27">
  </linearGradient>
  <linearGradient id="id11" gradientUnits="userSpaceOnUse" xlink:href="#id0" x1="703.62" y1="913.83" x2="877.44" y2="913.83">
  </linearGradient>
  <linearGradient id="id12" gradientUnits="userSpaceOnUse" xlink:href="#id0" x1="489.47" y1="1036.59" x2="665.01" y2="1036.59">
  </linearGradient>
  <linearGradient id="id13" gradientUnits="userSpaceOnUse" xlink:href="#id0" x1="758.5" y1="454.09" x2="926.47" y2="454.09">
  </linearGradient>
  <linearGradient id="id14" gradientUnits="userSpaceOnUse" xlink:href="#id0" x1="107.76" y1="739.36" x2="636.97" y2="739.36">
  </linearGradient>
 </defs>
 <g id="Camada_x0020_1">
  <metadata id="CorelCorpID_0Corel-Layer"/>
  <path class="fil0" d="M533.52 503.37c-13.25,-10.75 -27.49,-20.34 -42.61,-28.56l-0.25 19.95c-11.23,1.48 -27.11,3.54 -46.5,5.95 22.01,8.8 42.39,20.78 60.55,35.39 54.61,43.74 89.26,110.88 89.26,186.07 0,131.62 -106.14,238.7 -237.75,238.7 -26.16,0 -154.56,-9.23 -202.25,-111.85l-0.65 0.44c-8.6,-21.65 -12.39,-45.54 -10.09,-70.25 3.77,-40.55 23.13,-77.21 54.48,-103.23 31.36,-25.98 70.92,-38.23 111.53,-34.47 52.56,4.9 98.18,36 122.04,83.15l38.38 -19.42c-30.58,-60.45 -89.06,-100.26 -156.43,-106.56 -52.01,-4.85 -102.77,10.85 -142.97,44.18 -40.19,33.37 -65,80.35 -69.84,132.36 -9.19,98.72 57.04,187.3 151.21,208.73 32.69,12.99 68.06,19.9 104.59,19.9 155.36,0 280.77,-126.32 280.77,-281.7 0,-88.22 -39.88,-167.13 -103.47,-218.79z"/>
  <path class="fil1" d="M490.91 457.62l-0.25 19.95c-11.23,1.44 -27.11,3.5 -46.5,5.95 -97.92,12.11 -284.73,33.51 -403.51,36 0.82,-31.23 3.4,-60.63 7.87,-88.28 2.32,-14.6 5.15,-28.77 8.55,-42.42 23.65,-96.23 73.03,-168.97 150.52,-223.87 57.58,-40.77 147.98,-66.61 243.7,-94.04 14.63,-4.16 29.51,-8.4 44.6,-12.81l-4.98 399.53zm20.63 -449c-24.29,7.31 -48.59,14.21 -72.08,20.99 -99.34,28.39 -193.17,55.25 -256.73,100.21 -98.05,69.46 -144.92,158.38 -166.9,244.29 -3.66,14.47 -5.36,28.82 -7.73,43.04 -7.57,44.31 -8.11,86.82 -8.11,124.13l0 16.15 18.89 0c148.88,0 428.27,-33.42 485.82,-41.07 5.45,-0.71 8.95,0.08 10.11,-0.09l18.35 -1.66 0.35 -28.78 6.06 -485.83 -28.04 8.62z"/>
  <path class="fil2" d="M259.31 337.85c-79.87,0 -144.84,-64.95 -144.84,-144.83 0,-79.87 64.97,-144.87 144.84,-144.87 79.86,0 144.83,65 144.83,144.87 0,79.87 -64.98,144.83 -144.83,144.83z"/>
  <path class="fil3" d="M775.01 274.87c-0.09,16.18 -4.71,31.36 -12.41,44.45 -0.03,0.04 -0.03,0.08 -0.09,0.13 -15.43,26.42 -44.28,44.22 -77.1,44.22 -49.15,0 -89.2,-40.03 -89.2,-89.14 0,-12.82 2.67,-24.98 7.57,-35.96 6.35,-14.53 16.46,-27.03 29.17,-36.22 3.3,1.01 6.68,2.06 9.91,3.2 9.92,3.23 19.63,6.87 29.2,10.8 0.1,0 0.13,-0.05 0.22,-0.05 0.07,0 0.1,-0.04 0.2,-0.04 2.02,-0.48 4.17,-0.79 6.38,-1.01 -2.18,0.26 -4.3,0.61 -6.32,1.04 0.06,0 0.41,0.05 0.45,0.05 23.8,9.76 45.66,21.43 69.11,34.95l0 0.05c0,0.44 0.74,0.87 1.28,1.35 0.94,0.75 1.8,1.53 2.8,2.27 6.68,4.9 14.95,10.06 22.71,15.44 2.15,1.49 4.17,2.98 6.12,4.46z"/>
  <path class="fil4" d="M361.15 193.03c0,56.25 -45.59,101.83 -101.83,101.83 -56.24,0 -101.84,-45.57 -101.84,-101.83 0,-56.25 45.6,-101.83 101.84,-101.83 56.24,0 101.83,45.57 101.83,101.83z"/>
  <path class="fil5" d="M877.46 889.91c-8.05,11.85 -10.39,23.36 -26.02,34.38 0,0 0,0 0,0.05 0,0.57 -0.29,1.18 -0.87,1.79 0,0.05 0.38,0.05 0.38,0.05 -4.33,23.62 -22.42,42.34 -45.81,47.33 -0.1,0.09 -0.03,0.13 -0.13,0.22 -10.91,9.84 -22.62,19.16 -34.39,27.81 -0.04,0 0,0.05 -0.07,0.05 -15.85,-4.07 -30.03,-12.42 -41.17,-23.75 -15.91,-16.1 -25.76,-38.18 -25.76,-62.6 0,-49.16 40.01,-89.18 89.17,-89.18 22.94,0 43.47,8.7 59.29,23.01 12,10.85 20.66,24.89 25.38,40.85z"/>
  <path class="fil6" d="M852.44 915.23c0,3.72 -0.36,7.35 -1,10.89 0,0.05 -0.03,0.05 -0.03,0.05 -4.37,23.62 -22.68,42.34 -46.07,47.33 -4.04,0.88 -8.25,1.36 -12.54,1.36 -14.93,0 -28.65,-5.52 -39.11,-14.61 -12.54,-10.94 -20.5,-27.08 -20.5,-45.01 0,-32.94 26.69,-59.62 59.62,-59.62 16.97,0 32.34,7.13 43.22,18.5 10.17,10.72 16.43,25.15 16.43,41.11z"/>
  <path class="fil7" d="M665.96 1059.28c-9.76,3.8 -19.73,7.31 -29.87,10.41 -35.71,11.07 -73.34,17.84 -112.26,19.64 -7.21,0.39 -14.43,0.57 -21.75,0.57 -3.3,0 -6.57,-0.05 -9.85,-0.09 -0.28,-0.83 -0.55,-1.71 -0.8,-2.53 -3.85,-12.99 -4.75,-26.94 -2.34,-40.59 1.61,-9.14 4.65,-18.11 9.24,-26.72 23.33,-43.35 77.45,-59.62 120.76,-36.39 15.18,8.18 27.05,20.08 35.04,34.03 2.7,4.64 4.91,9.49 6.68,14.53 3.11,8.7 4.88,17.84 5.17,27.16z"/>
  <path class="fil8" d="M745.85 274.52c0,9.58 -2.76,18.59 -6.8,26.63 -0.07,0.05 -0.13,0.09 -0.19,0.14 -9.76,19.42 -30.1,32.8 -53.42,32.8 -32.88,0 -59.65,-26.68 -59.65,-59.57 0,-9.93 2.34,-19.25 6.64,-27.48 7.92,-15.35 22.3,-26.81 39.66,-30.7 0.06,0 0.12,-0.05 0.18,-0.05 0.07,0 0.1,-0.04 0.2,-0.04 2.02,-0.48 4.17,-0.79 6.38,-1.01 -2.18,0.26 -4.3,0.61 -6.32,1.04 0.06,0 0.41,0.05 0.45,0.05 23.8,9.76 45.66,21.43 69.11,34.95l0 0.05c0,7.13 3.76,14.96 3.76,23.18z"/>
  <path class="fil9" d="M636.09 1069.69c-35.71,11.07 -73.34,17.84 -112.26,19.64 -1.02,-1.97 -1.89,-3.98 -2.66,-6.08 -4.36,-11.55 -5.17,-24.45 -1.8,-36.74 1.15,-4.33 2.79,-8.53 4.97,-12.55 15.62,-29.04 51.79,-39.94 80.79,-24.37 8.4,4.55 15.33,10.85 20.5,18.2 4,5.68 6.93,11.94 8.76,18.59 2.08,7.52 2.67,15.44 1.7,23.31z"/>
  <path class="fil10" d="M956.19 644.88c-4.2,42.56 -8.09,83.58 -19.83,122.47 -14.63,10.93 -32.73,17.5 -52.3,17.67 -0.32,0.05 -0.65,0.05 -1,0.05 -49.12,0 -89.13,-39.98 -89.13,-89.14 0,-49.17 40.01,-89.19 89.13,-89.19 9.82,0 19.25,1.62 28.05,4.51 18.41,6.12 34.17,18.06 45.07,33.64z"/>
  <path class="fil11" d="M942.75 695.92c0,32.94 -26.69,59.62 -59.65,59.62 -32.92,0 -59.64,-26.68 -59.64,-59.62 0,-32.94 26.72,-59.66 59.64,-59.66 32.95,0 59.65,26.72 59.65,59.66z"/>
  <path class="fil12" d="M931.8 492.48c-7.86,14.83 -19.83,27.17 -34.35,35.57 -13.13,7.57 -28.31,11.9 -44.48,11.9 -49.15,0 -89.13,-39.98 -89.13,-89.14 0,-35.3 20.6,-65.88 50.41,-80.31 11.68,-5.68 24.83,-8.88 38.72,-8.88 3.27,0 5.81,0.18 9.02,0.57 10.42,13.56 20.69,27.78 28.52,42.52 0,0.05 0,0.05 0,0.05 0,0.04 0.32,0.08 0.32,0.13 0.16,0.26 0.68,0.57 0.8,0.83 11.16,9.62 18.84,23.36 20.47,38.8 0.1,0.18 0.25,0.35 0.35,0.52 0.03,0.05 0.03,0.09 0.03,0.13 7.22,15.31 13.9,31.1 19.31,47.33z"/>
  <path class="fil13" d="M907.28 454.09c0,19.73 -9.53,37.18 -24.29,48.07 -9.88,7.26 -22.1,11.55 -35.36,11.55 -32.88,0 -59.58,-26.72 -59.58,-59.62 0,-25.94 16.62,-48.12 39.81,-56.25 6.2,-2.19 12.84,-3.37 19.76,-3.37 14.92,0 28.56,5.47 39.01,14.53 11.14,9.62 18.67,23.36 20.31,38.8 0.19,2.05 0.32,4.16 0.32,6.3z"/>
  <path class="fil14" d="M257.19 228.99c0,16.35 -13.24,29.57 -29.56,29.57 -16.32,0 -29.56,-13.21 -29.56,-29.57 0,-16.32 13.24,-29.53 29.56,-29.53 16.32,0 29.56,13.21 29.56,29.53z"/>
  <path class="fil14" d="M473.94 718.36c0,12.08 -9.77,21.83 -21.82,21.83 -12.05,0 -21.83,-9.76 -21.83,-21.83 0,-12.03 9.78,-21.82 21.83,-21.82 12.05,0 21.82,9.79 21.82,21.82z"/>
  <path class="fil15" d="M402.69 365.94c-25.71,41.42 -75.85,69.02 -144.96,79.56 -66.44,10.23 -144.87,3.72 -209.21,-14.26 -14.76,-4.11 -28.73,-8.83 -41.71,-14.08 2.36,-14.22 5.37,-28.57 9.03,-43.04 12.25,5.42 26.19,10.32 41.23,14.69 56.68,16.27 129.75,24.1 194.12,14.22 39.27,-6.04 91.09,-21.31 114.95,-59.8l36.55 22.71z"/>
  <path class="fil16" d="M952.99 642.95c0,0 0,0 0,0.05 0,0.65 1.57,1.27 1.51,1.88 -4.21,42.56 -7.22,83.58 -18.97,122.47 -0.1,0.22 0.29,0.48 0.19,0.7 -13.09,43.43 -32.02,84.07 -56.79,120.9 -0.19,0.26 -0.41,0.48 -0.61,0.75 -0.03,0.08 -0.87,0.13 -0.93,0.22 -8.03,11.85 -10.33,23.36 -25.96,34.38 0,0 0,0 0,0.05 0,0.57 -0.29,1.18 -0.87,1.79 0,0.05 0.38,0.05 0.38,0.05 -16.36,16.88 -29.58,32.72 -45.81,47.33 -0.1,0.09 -0.03,0.13 -0.13,0.22 -10.91,9.84 -22.62,19.16 -34.39,27.81 -0.04,0 0,0.05 -0.07,0.05 -31.95,23.62 -67.02,43.09 -104.59,57.7 -9.76,3.8 -19.73,7.31 -29.9,10.41 -35.68,11.07 -73.31,17.84 -112.23,19.64 -7.21,0.39 -14.43,0.57 -21.75,0.57 -3.3,0 -6.57,-0.05 -9.85,-0.09 -153.13,-3.28 -292.67,-82.15 -374.6,-212.45l36.38 -22.88c73.45,116.87 198.03,188 335.07,192.2 4.26,0.13 8.53,0.22 12.84,0.22 5.84,0 11.68,-0.13 17.45,-0.39 36.89,-1.57 72.51,-7.96 106.27,-18.72 9.66,-3.02 19.18,-6.43 28.48,-10.19 26.6,-10.67 51.79,-24.01 75.27,-39.76 8.34,-5.55 16.43,-11.46 24.29,-17.58 31.44,-24.54 59.19,-53.54 82.33,-86.12 5.81,-8.1 11.29,-16.49 16.48,-25.06 12.33,-20.26 22.91,-41.69 31.58,-64.04 3.91,-10.02 7.44,-20.21 10.49,-30.62 10.62,-35.17 16.62,-72.31 17.26,-110.75 0.03,-2.45 0.09,-4.9 0.09,-7.39 0,-8.4 -0.28,-16.75 -0.8,-25.02 -1.67,-28.61 -6.35,-56.43 -13.67,-83.2 -2.67,-9.89 -5.72,-19.64 -9.12,-29.17 -13.32,-37.62 -31.99,-72.65 -55.12,-104.32 -6,-8.23 -12.32,-16.27 -18.96,-24.06 -15.72,-18.5 -33.05,-35.6 -51.75,-51.04 -0.04,-0.05 -0.13,-0.09 -0.16,-0.13 -7.67,-6.3 -15.5,-12.3 -23.58,-18.02 0,0.04 -0.03,0.04 -0.03,0.08 -0.03,0.18 -0.1,0.52 -0.13,0.52 -0.03,-0.04 -0.1,-1.84 -0.13,-1.88 -32.21,-22.83 -67.82,-39.45 -106.04,-55.07l-0.06 0c-0.16,0 -0.38,4.16 -0.55,4.07 -9.24,-4.25 -18.48,-4.07 -28.05,-4.07l-0.03 0c-0.19,-7.78 -0.61,-2.58 -0.77,-2.62 -32.82,-8.53 -63.98,-16.75 -103.05,-16.75l0 -43c46.87,0 90.8,6.91 132.7,19.77 1.71,0.52 3.46,1.22 5.16,1.75 1.67,0.48 3.43,1.79 5.07,1.79 0.07,0 0.07,0 0.1,0 2.24,0 4.46,1.27 6.68,2.06 1.12,0.39 2.21,0.7 3.33,1.01 6.64,2.36 13.15,4.72 19.51,7.34 0.03,0.05 0.03,0.05 0.06,0.05 0.06,0 0.41,0.05 0.45,0.05 23.8,9.71 45.66,21.39 69.11,34.9l0 0.05c0,0.44 0.74,0.87 1.28,1.35 0.94,0.75 1.8,1.49 2.8,2.27 6.68,4.9 14.98,10.02 22.71,15.44 2.15,1.49 4.2,2.98 6.19,4.46 32.92,25.02 62.53,54.32 87.55,87.22 0.07,0.04 -0.64,0.04 -0.64,0.08 10.46,13.56 20.69,27.78 28.52,42.52 0,0.05 0,0.05 0,0.05 0,0.04 0.32,0.08 0.32,0.13 0.16,0.26 0.68,0.57 0.8,0.83 7.51,12.51 14.28,25.5 20.47,38.8 0.1,0.18 0.25,0.35 0.35,0.52 0.03,0.05 0.03,0.09 0.03,0.13 7.22,15.31 13.9,31.1 19.29,47.33 0.06,0.18 0.16,0.35 0.18,0.53 15.15,45.05 22.02,93.21 22.02,143.25 0,2.23 -0.99,4.46 -0.99,6.69z"/>
 </g>
</svg>
